<?xml version="1.0" standalone="no"?>
<!DOCTYPE svg PUBLIC "-//W3C//DTD SVG 20010904//EN"
 "http://www.w3.org/TR/2001/REC-SVG-20010904/DTD/svg10.dtd">
<svg version="1.0" xmlns="http://www.w3.org/2000/svg"
 width="512.000000pt" height="512.000000pt" viewBox="0 0 512.000000 512.000000"
 preserveAspectRatio="xMidYMid meet">
<metadata>
Created by potrace 1.14, written by Peter Selinger 2001-2017
</metadata>
<g transform="translate(0.000000,512.000000) scale(0.100000,-0.100000)"
fill="#000000" stroke="none">
<path d="M393 5106 c-183 -45 -330 -190 -377 -373 -15 -56 -16 -269 -14 -2195
l3 -2133 22 -60 c67 -175 220 -306 393 -335 46 -8 684 -10 2180 -8 l2115 3 68
27 c86 35 141 73 205 143 60 66 106 156 122 240 8 44 10 633 8 2180 l-3 2120
-23 59 c-64 169 -213 300 -380 335 -82 17 -4248 14 -4319 -3z m2923 -1254
c110 -117 163 -180 159 -191 -11 -37 -65 -371 -84 -522 -33 -262 -41 -413 -41
-733 0 -302 8 -408 33 -433 44 -44 360 286 545 570 59 90 73 122 96 209 102
383 260 892 291 934 12 17 22 17 134 7 67 -6 124 -13 127 -15 2 -3 -34 -119
-80 -259 -225 -676 -314 -1181 -342 -1941 -6 -166 -7 -178 -28 -191 -43 -29
-384 -207 -395 -207 -31 0 35 513 123 945 19 94 33 171 32 172 -1 1 -22 -23
-46 -55 -155 -199 -435 -432 -519 -432 -52 0 -136 47 -202 111 -65 65 -73 88
-90 269 -6 58 -14 133 -17 167 l-7 61 -97 -122 c-221 -278 -569 -674 -630
-717 l-30 -22 -81 81 -81 81 100 103 c156 162 304 367 450 624 70 124 206 401
264 539 19 44 35 82 37 84 2 3 18 -10 36 -27 18 -18 36 -32 40 -32 4 0 7 22 7
49 0 83 39 556 65 781 35 300 34 300 52 293 7 -3 88 -84 179 -181z m-1288 33
c156 -47 384 -277 418 -422 18 -77 18 -293 -1 -418 -52 -346 -217 -700 -478
-1029 -297 -372 -705 -644 -976 -649 -55 -1 -75 4 -121 27 -109 57 -265 239
-307 359 -26 74 -26 337 0 457 52 243 176 504 359 752 33 46 64 86 67 91 6 6
160 -165 250 -280 l34 -42 -40 -48 c-193 -235 -408 -666 -447 -895 -8 -44 10
-93 48 -127 25 -24 29 -24 87 -13 84 15 226 86 334 167 405 302 768 848 896
1349 43 167 61 397 37 467 -30 91 -76 115 -192 99 -153 -21 -302 -130 -377
-275 -61 -117 -73 -166 -74 -295 0 -140 19 -225 81 -347 24 -48 42 -89 40 -91
-4 -4 -265 17 -334 27 -43 6 -47 9 -78 66 -92 170 -100 407 -19 590 97 221
363 432 604 480 89 18 128 18 189 0z"/>
</g>
</svg>
