<?xml version="1.0" standalone="no"?>
<!DOCTYPE svg PUBLIC "-//W3C//DTD SVG 20010904//EN"
 "http://www.w3.org/TR/2001/REC-SVG-20010904/DTD/svg10.dtd">
<svg version="1.0" xmlns="http://www.w3.org/2000/svg"
 width="512.000000pt" height="512.000000pt" viewBox="0 0 512.000000 512.000000"
 preserveAspectRatio="xMidYMid meet">
<metadata>
Created by potrace 1.14, written by Peter Selinger 2001-2017
</metadata>
<g transform="translate(0.000000,512.000000) scale(0.100000,-0.100000)"
fill="#000000" stroke="none">
<path d="M404 5105 c-88 -19 -166 -59 -230 -117 -69 -64 -107 -119 -142 -205
l-27 -68 -3 -2117 c-3 -2314 -5 -2191 55 -2314 15 -32 54 -87 87 -121 71 -76
185 -137 286 -153 91 -14 4171 -14 4260 0 201 32 373 197 416 399 11 55 14
398 14 2141 0 1375 -4 2097 -10 2140 -24 150 -141 310 -273 373 -124 60 -5 57
-2282 56 -1702 0 -2101 -3 -2151 -14z m2963 -1164 c161 -172 174 -188 169
-216 -42 -233 -79 -475 -95 -620 -38 -328 -52 -793 -31 -1021 12 -130 18 -154
40 -154 69 0 372 319 538 568 94 139 109 171 137 281 67 267 239 830 300 984
5 13 19 17 52 17 45 0 235 -20 241 -25 2 -2 -26 -89 -62 -194 -259 -756 -363
-1323 -392 -2149 l-7 -194 -36 -23 c-20 -13 -121 -69 -226 -124 l-190 -100 -3
35 c-10 110 63 631 142 1009 l33 159 -36 -44 c-151 -186 -292 -319 -445 -421
-65 -43 -99 -59 -123 -59 -54 0 -142 49 -214 120 l-66 65 -17 90 c-9 50 -21
153 -27 230 -6 77 -11 140 -12 141 -1 1 -57 -66 -123 -149 -185 -232 -425
-508 -561 -647 l-122 -125 -85 85 c-48 46 -86 89 -86 94 0 5 44 55 98 110 262
270 507 663 739 1186 35 79 66 147 69 149 2 3 22 -12 43 -33 l38 -37 7 133
c14 267 80 962 101 1055 4 15 10 20 21 16 8 -3 94 -89 191 -192z m-1369 34
c76 -23 189 -104 283 -203 158 -167 185 -245 175 -502 -14 -369 -138 -725
-376 -1083 -120 -179 -202 -280 -346 -423 -290 -289 -622 -476 -849 -478 -99
-1 -167 37 -283 159 -95 99 -153 189 -180 275 -22 74 -22 309 1 436 47 258
196 576 398 848 35 47 67 86 71 86 6 0 215 -240 261 -301 15 -20 27 -40 27
-45 0 -6 -27 -46 -61 -89 -161 -210 -313 -494 -404 -756 -45 -131 -54 -202
-30 -253 39 -81 122 -80 293 4 342 170 732 606 968 1085 151 307 223 578 225
846 1 174 -37 229 -158 229 -112 0 -231 -47 -321 -126 -238 -208 -282 -570
-109 -886 17 -31 28 -60 24 -64 -9 -10 -374 24 -398 36 -24 14 -82 137 -105
225 -27 105 -25 268 5 365 78 251 275 459 539 570 135 57 257 72 350 45z"/>
</g>
</svg>
